<svg width="46" height="46" viewBox="0 0 46 46" fill="none" xmlns="http://www.w3.org/2000/svg">
<rect width="46" height="46" fill="#f1f8ff"/>
<path d="M23.3218 23.0426C24.9762 23.0426 26.4088 22.4492 27.5794 21.2785C28.7499 20.1079 29.3433 18.6757 29.3433 17.0211C29.3433 15.367 28.7499 13.9346 27.5792 12.7637C26.4085 11.5934 24.976 11 23.3218 11C21.6672 11 20.2349 11.5934 19.0644 12.7639C17.8939 13.9344 17.3003 15.3669 17.3003 17.0211C17.3003 18.6757 17.8939 20.1081 19.0646 21.2787C20.2353 22.449 21.6677 23.0426 23.3218 23.0426V23.0426Z" fill="#4285f4"/>
<path d="M33.8579 30.2237C33.8241 29.7366 33.7558 29.2052 33.6553 28.644C33.5538 28.0787 33.4232 27.5443 33.2668 27.0558C33.1052 26.5509 32.8855 26.0523 32.6139 25.5745C32.332 25.0786 32.0009 24.6468 31.6293 24.2915C31.2408 23.9197 30.7651 23.6209 30.215 23.4028C29.6668 23.186 29.0593 23.0761 28.4095 23.0761C28.1543 23.0761 27.9075 23.1808 27.4309 23.4912C27.1375 23.6825 26.7944 23.9037 26.4114 24.1484C26.0839 24.3571 25.6402 24.5526 25.0923 24.7296C24.5576 24.9026 24.0148 24.9903 23.479 24.9903C22.9432 24.9903 22.4006 24.9026 21.8654 24.7296C21.318 24.5528 20.8743 24.3573 20.5472 24.1486C20.1679 23.9062 19.8245 23.6849 19.5268 23.491C19.0507 23.1806 18.8037 23.0759 18.5485 23.0759C17.8985 23.0759 17.2912 23.186 16.7432 23.403C16.1935 23.6207 15.7176 23.9195 15.3287 24.2917C14.9574 24.6472 14.6261 25.0788 14.3445 25.5745C14.0731 26.0523 13.8534 26.5507 13.6917 27.056C13.5354 27.5444 13.4048 28.0787 13.3033 28.644C13.2028 29.2044 13.1345 29.736 13.1008 30.2243C13.0676 30.7026 13.0508 31.1991 13.0508 31.7005C13.0508 33.0055 13.4656 34.062 14.2837 34.8412C15.0916 35.61 16.1607 36.0001 17.4608 36.0001H29.4984C30.7985 36.0001 31.8672 35.6102 32.6753 34.8412C33.4936 34.0626 33.9084 33.0059 33.9084 31.7003C33.9082 31.1966 33.8912 30.6998 33.8579 30.2237V30.2237Z" fill="#4285f4"/>
</svg>
